<mxfile host="app.diagrams.net" modified="2021-02-18T08:41:44.121Z" agent="5.0 (Macintosh; Intel Mac OS X 10_15_6) AppleWebKit/537.36 (KHTML, like Gecko) Chrome/88.0.4324.150 Safari/537.36" etag="-WlZYLYtw_UJ1D4OXhTp" version="14.4.2" type="github">
  <diagram id="prtHgNgQTEPvFCAcTncT" name="Page-1">
    <mxGraphModel dx="1426" dy="695" grid="1" gridSize="10" guides="1" tooltips="1" connect="1" arrows="1" fold="1" page="1" pageScale="1" pageWidth="827" pageHeight="1169" math="0" shadow="0">
      <root>
        <mxCell id="0" />
        <mxCell id="1" parent="0" />
        <mxCell id="RLGwn9-GYlQNmIjpG8vO-2" value="&lt;font style=&quot;vertical-align: inherit&quot;&gt;&lt;font style=&quot;vertical-align: inherit&quot;&gt;产测web端&lt;/font&gt;&lt;/font&gt;" style="rounded=0;whiteSpace=wrap;html=1;" vertex="1" parent="1">
          <mxGeometry x="354" y="80" width="156" height="40" as="geometry" />
        </mxCell>
        <mxCell id="RLGwn9-GYlQNmIjpG8vO-18" style="edgeStyle=orthogonalEdgeStyle;rounded=0;orthogonalLoop=1;jettySize=auto;html=1;entryX=0.5;entryY=0;entryDx=0;entryDy=0;" edge="1" parent="1" source="RLGwn9-GYlQNmIjpG8vO-3" target="RLGwn9-GYlQNmIjpG8vO-4">
          <mxGeometry relative="1" as="geometry" />
        </mxCell>
        <mxCell id="RLGwn9-GYlQNmIjpG8vO-19" style="edgeStyle=orthogonalEdgeStyle;rounded=0;orthogonalLoop=1;jettySize=auto;html=1;entryX=0.5;entryY=0;entryDx=0;entryDy=0;" edge="1" parent="1" source="RLGwn9-GYlQNmIjpG8vO-3" target="RLGwn9-GYlQNmIjpG8vO-5">
          <mxGeometry relative="1" as="geometry" />
        </mxCell>
        <mxCell id="RLGwn9-GYlQNmIjpG8vO-20" style="edgeStyle=orthogonalEdgeStyle;rounded=0;orthogonalLoop=1;jettySize=auto;html=1;entryX=0.5;entryY=0;entryDx=0;entryDy=0;" edge="1" parent="1" source="RLGwn9-GYlQNmIjpG8vO-3" target="RLGwn9-GYlQNmIjpG8vO-6">
          <mxGeometry relative="1" as="geometry" />
        </mxCell>
        <mxCell id="RLGwn9-GYlQNmIjpG8vO-3" value="&lt;font style=&quot;vertical-align: inherit&quot;&gt;&lt;font style=&quot;vertical-align: inherit&quot;&gt;&lt;font style=&quot;vertical-align: inherit&quot;&gt;&lt;font style=&quot;vertical-align: inherit&quot;&gt;产测服务端&lt;/font&gt;&lt;/font&gt;&lt;/font&gt;&lt;/font&gt;" style="rounded=0;whiteSpace=wrap;html=1;" vertex="1" parent="1">
          <mxGeometry x="354" y="170" width="156" height="40" as="geometry" />
        </mxCell>
        <mxCell id="RLGwn9-GYlQNmIjpG8vO-21" style="edgeStyle=orthogonalEdgeStyle;rounded=0;orthogonalLoop=1;jettySize=auto;html=1;entryX=0.5;entryY=0;entryDx=0;entryDy=0;" edge="1" parent="1" source="RLGwn9-GYlQNmIjpG8vO-4" target="RLGwn9-GYlQNmIjpG8vO-9">
          <mxGeometry relative="1" as="geometry" />
        </mxCell>
        <mxCell id="RLGwn9-GYlQNmIjpG8vO-22" style="edgeStyle=orthogonalEdgeStyle;rounded=0;orthogonalLoop=1;jettySize=auto;html=1;entryX=0.5;entryY=0;entryDx=0;entryDy=0;" edge="1" parent="1" source="RLGwn9-GYlQNmIjpG8vO-4" target="RLGwn9-GYlQNmIjpG8vO-10">
          <mxGeometry relative="1" as="geometry" />
        </mxCell>
        <mxCell id="RLGwn9-GYlQNmIjpG8vO-23" style="edgeStyle=orthogonalEdgeStyle;rounded=0;orthogonalLoop=1;jettySize=auto;html=1;" edge="1" parent="1" source="RLGwn9-GYlQNmIjpG8vO-4" target="RLGwn9-GYlQNmIjpG8vO-11">
          <mxGeometry relative="1" as="geometry" />
        </mxCell>
        <mxCell id="RLGwn9-GYlQNmIjpG8vO-4" value="&lt;font style=&quot;vertical-align: inherit&quot;&gt;&lt;font style=&quot;vertical-align: inherit&quot;&gt;dongle1&lt;/font&gt;&lt;/font&gt;" style="rounded=0;whiteSpace=wrap;html=1;" vertex="1" parent="1">
          <mxGeometry x="200" y="250" width="110" height="30" as="geometry" />
        </mxCell>
        <mxCell id="RLGwn9-GYlQNmIjpG8vO-24" style="edgeStyle=orthogonalEdgeStyle;rounded=0;orthogonalLoop=1;jettySize=auto;html=1;entryX=0.5;entryY=0;entryDx=0;entryDy=0;" edge="1" parent="1" source="RLGwn9-GYlQNmIjpG8vO-5" target="RLGwn9-GYlQNmIjpG8vO-12">
          <mxGeometry relative="1" as="geometry" />
        </mxCell>
        <mxCell id="RLGwn9-GYlQNmIjpG8vO-25" style="edgeStyle=orthogonalEdgeStyle;rounded=0;orthogonalLoop=1;jettySize=auto;html=1;entryX=0.5;entryY=0;entryDx=0;entryDy=0;" edge="1" parent="1" source="RLGwn9-GYlQNmIjpG8vO-5" target="RLGwn9-GYlQNmIjpG8vO-13">
          <mxGeometry relative="1" as="geometry" />
        </mxCell>
        <mxCell id="RLGwn9-GYlQNmIjpG8vO-5" value="&lt;font style=&quot;vertical-align: inherit&quot;&gt;&lt;font style=&quot;vertical-align: inherit&quot;&gt;dongle2&lt;/font&gt;&lt;/font&gt;" style="rounded=0;whiteSpace=wrap;html=1;" vertex="1" parent="1">
          <mxGeometry x="377" y="250" width="110" height="30" as="geometry" />
        </mxCell>
        <mxCell id="RLGwn9-GYlQNmIjpG8vO-29" style="edgeStyle=orthogonalEdgeStyle;rounded=0;orthogonalLoop=1;jettySize=auto;html=1;entryX=0.5;entryY=0;entryDx=0;entryDy=0;" edge="1" parent="1" source="RLGwn9-GYlQNmIjpG8vO-6" target="RLGwn9-GYlQNmIjpG8vO-14">
          <mxGeometry relative="1" as="geometry" />
        </mxCell>
        <mxCell id="RLGwn9-GYlQNmIjpG8vO-6" value="&lt;font style=&quot;vertical-align: inherit&quot;&gt;&lt;font style=&quot;vertical-align: inherit&quot;&gt;dongle3&lt;/font&gt;&lt;/font&gt;" style="rounded=0;whiteSpace=wrap;html=1;" vertex="1" parent="1">
          <mxGeometry x="550" y="250" width="110" height="30" as="geometry" />
        </mxCell>
        <mxCell id="RLGwn9-GYlQNmIjpG8vO-9" value="&lt;font style=&quot;vertical-align: inherit&quot;&gt;&lt;font style=&quot;vertical-align: inherit&quot;&gt;设备&lt;/font&gt;&lt;/font&gt;" style="rounded=0;whiteSpace=wrap;html=1;" vertex="1" parent="1">
          <mxGeometry x="80" y="330" width="60" height="40" as="geometry" />
        </mxCell>
        <mxCell id="RLGwn9-GYlQNmIjpG8vO-10" value="&lt;font style=&quot;vertical-align: inherit&quot;&gt;&lt;font style=&quot;vertical-align: inherit&quot;&gt;设备&lt;/font&gt;&lt;/font&gt;" style="rounded=0;whiteSpace=wrap;html=1;" vertex="1" parent="1">
          <mxGeometry x="190" y="330" width="60" height="40" as="geometry" />
        </mxCell>
        <mxCell id="RLGwn9-GYlQNmIjpG8vO-11" value="&lt;font style=&quot;vertical-align: inherit&quot;&gt;&lt;font style=&quot;vertical-align: inherit&quot;&gt;设备&lt;/font&gt;&lt;/font&gt;" style="rounded=0;whiteSpace=wrap;html=1;" vertex="1" parent="1">
          <mxGeometry x="260" y="330" width="60" height="40" as="geometry" />
        </mxCell>
        <mxCell id="RLGwn9-GYlQNmIjpG8vO-12" value="&lt;font style=&quot;vertical-align: inherit&quot;&gt;&lt;font style=&quot;vertical-align: inherit&quot;&gt;设备&lt;/font&gt;&lt;/font&gt;" style="rounded=0;whiteSpace=wrap;html=1;" vertex="1" parent="1">
          <mxGeometry x="360" y="330" width="60" height="40" as="geometry" />
        </mxCell>
        <mxCell id="RLGwn9-GYlQNmIjpG8vO-13" value="&lt;font style=&quot;vertical-align: inherit&quot;&gt;&lt;font style=&quot;vertical-align: inherit&quot;&gt;设备&lt;/font&gt;&lt;/font&gt;" style="rounded=0;whiteSpace=wrap;html=1;" vertex="1" parent="1">
          <mxGeometry x="450" y="330" width="60" height="40" as="geometry" />
        </mxCell>
        <mxCell id="RLGwn9-GYlQNmIjpG8vO-14" value="&lt;font style=&quot;vertical-align: inherit&quot;&gt;&lt;font style=&quot;vertical-align: inherit&quot;&gt;设备&lt;/font&gt;&lt;/font&gt;" style="rounded=0;whiteSpace=wrap;html=1;" vertex="1" parent="1">
          <mxGeometry x="575" y="330" width="60" height="40" as="geometry" />
        </mxCell>
        <mxCell id="RLGwn9-GYlQNmIjpG8vO-17" value="" style="endArrow=classic;startArrow=classic;html=1;entryX=0.5;entryY=1;entryDx=0;entryDy=0;exitX=0.5;exitY=0;exitDx=0;exitDy=0;" edge="1" parent="1" source="RLGwn9-GYlQNmIjpG8vO-3" target="RLGwn9-GYlQNmIjpG8vO-2">
          <mxGeometry width="50" height="50" relative="1" as="geometry">
            <mxPoint x="410" y="170" as="sourcePoint" />
            <mxPoint x="460" y="120" as="targetPoint" />
          </mxGeometry>
        </mxCell>
      </root>
    </mxGraphModel>
  </diagram>
</mxfile>
